<svg width="18" height="5" viewBox="0 0 18 5" fill="none" xmlns="http://www.w3.org/2000/svg">
<path d="M16.5534 0.469391H7.70229V0.370616C7.70229 0.172895 7.55328 0 7.3832 0H6.83005C6.65982 0 6.51096 0.173071 6.51096 0.370616V0.469391H1.44674C0.659538 0.469391 0 1.21081 0 2.14975C0 3.08887 0.638338 3.83011 1.44674 3.83011H6.51058V3.92889C6.51058 4.12661 6.65959 4.2995 6.82967 4.2995L7.38294 4.29985C7.55317 4.29985 7.70203 4.12678 7.70203 3.92923V3.83028H16.5531C17.3403 3.83028 17.9998 3.08886 17.9998 2.14992C17.9998 1.21081 17.3403 0.469387 16.5531 0.469387L16.5534 0.469391ZM16.5534 2.81703H7.70229V1.4578H16.5534C16.8725 1.4578 17.1491 1.7543 17.1491 2.14975C17.1491 2.54519 16.8725 2.81703 16.5534 2.81703Z" fill="#A8B0B9"/>
</svg>
