<svg width="19" height="16" viewBox="0 0 19 16" fill="none" xmlns="http://www.w3.org/2000/svg">
<path d="M1.80957 0C0.814936 0 0 0.800635 0 1.77782V14.4445C0 15.2986 0.713957 16 1.5833 16H17.4167C18.286 16 19 15.2986 19 14.4445V4.22226C19 3.36817 18.286 2.66675 17.4167 2.66675H16.2857V0.444524C16.2857 0.211853 16.0702 0.000118982 15.8334 0.000118982L1.80957 0ZM1.80957 0.88881H15.3811V2.66663H1.80957C1.30056 2.66663 0.904887 2.27786 0.904887 1.77782C0.904887 1.27777 1.3006 0.889008 1.80957 0.889008V0.88881ZM0.904887 3.31238C1.17153 3.46491 1.48062 3.55544 1.80957 3.55544C6.90453 3.55094 13.038 3.55544 17.4168 3.55544C17.8005 3.55544 18.0954 3.84515 18.0954 4.22214V6.44437H11.5358C10.9172 6.44437 10.4049 6.9477 10.4049 7.55548V11.1111C10.4049 11.7189 10.9172 12.2222 11.5358 12.2222H18.0954V14.4444C18.0954 14.8214 17.8005 15.1112 17.4168 15.1112H1.58338C1.19966 15.1112 0.904766 14.8214 0.904766 14.4444L0.904887 3.31238ZM11.5359 7.33302H18.0954V11.333H11.5359C11.4027 11.333 11.3096 11.2416 11.3096 11.1107V7.5551C11.3096 7.42427 11.4027 7.33281 11.5359 7.33281V7.33302ZM13.7978 8.21504C13.1785 8.21504 12.6668 8.71774 12.6668 9.32615C12.6668 9.93456 13.1785 10.4373 13.7978 10.4373C14.4171 10.4373 14.9288 9.93456 14.9288 9.32615C14.9288 8.71774 14.4171 8.21504 13.7978 8.21504ZM13.7978 9.10385C13.9281 9.10385 14.0241 9.1981 14.0241 9.32613C14.0241 9.45417 13.9281 9.54842 13.7978 9.54842C13.6675 9.54842 13.5715 9.45417 13.5715 9.32613C13.5715 9.1981 13.6675 9.10385 13.7978 9.10385Z" fill="#A8B0B9"/>
</svg>
