<svg width="20" height="20" viewBox="0 0 20 20" fill="none" xmlns="http://www.w3.org/2000/svg">
<path d="M10 0.000107142C9.87308 0.000246649 9.74919 0.0388891 9.64483 0.111157L0.269202 6.56148C0.122289 6.66332 0.0258821 6.82306 0.00453427 7.00051C-0.0169515 7.17783 0.0385765 7.35598 0.157166 7.48976C0.275617 7.62355 0.445689 7.70028 0.624412 7.70042H1.39957V19.3775C1.40027 19.5432 1.46668 19.7019 1.58443 19.8186C1.70205 19.9354 1.86138 20.0007 2.02714 20H17.9729C18.1386 20.0007 18.2979 19.9354 18.4156 19.8186C18.5333 19.7019 18.5997 19.5432 18.6004 19.3774V7.70031H19.3756C19.5543 7.70017 19.7244 7.62344 19.8428 7.48965C19.9614 7.35586 20.017 7.17771 19.9955 7.00041C19.9741 6.82295 19.8777 6.66321 19.7308 6.56137L10.3552 0.111049C10.2508 0.0387855 10.1269 0.000139285 9.99995 0L10 0.000107142ZM10 1.38446L17.3638 6.4505L2.63634 6.45036L10 1.38446ZM2.64955 7.70014H17.3502V18.7497H14.7108V12.5998C14.7115 12.4339 14.6461 12.2744 14.529 12.1568C14.4119 12.0391 14.253 11.9727 14.087 11.9724H5.91146C5.74571 11.9731 5.58708 12.0395 5.47028 12.1572C5.35351 12.2749 5.28821 12.434 5.28891 12.5998V18.7497L2.64952 18.7499L2.64955 7.70014ZM7.46166 9.78998H7.4618C7.29564 9.78984 7.1363 9.85555 7.01884 9.97288C6.90137 10.0903 6.83538 10.2495 6.83538 10.4156C6.83538 10.5817 6.90137 10.7409 7.01884 10.8582C7.13632 10.9756 7.29565 11.0414 7.4618 11.0413H12.5368H12.5366C12.7028 11.0414 12.8621 10.9756 12.9796 10.8582C13.0971 10.7409 13.1631 10.5817 13.1631 10.4156C13.1631 10.2495 13.0971 10.0904 12.9796 9.97288C12.8621 9.85555 12.7028 9.78984 12.5366 9.78998H7.46166ZM6.53874 13.2226H13.4596V18.75H6.5391L6.53874 13.2226ZM8.08431 14.2699C7.8608 14.2699 7.65432 14.3891 7.54256 14.5828C7.43081 14.7763 7.43081 15.0148 7.54256 15.2083C7.65431 15.402 7.8608 15.5211 8.08431 15.5211H11.9139C12.1374 15.5211 12.344 15.402 12.4557 15.2083C12.5675 15.0148 12.5675 14.7763 12.4557 14.5828C12.344 14.3891 12.1374 14.2699 11.9139 14.2699H8.08431ZM8.08431 16.4524C7.91619 16.4488 7.75365 16.513 7.63339 16.6306C7.51312 16.7482 7.44532 16.9093 7.44532 17.0775C7.44532 17.2457 7.51312 17.4068 7.63339 17.5245C7.75365 17.6421 7.91619 17.7062 8.08431 17.7025H11.9139C12.082 17.7062 12.2447 17.6421 12.3649 17.5245C12.4852 17.4068 12.5529 17.2457 12.5529 17.0775C12.5529 16.9093 12.4852 16.7482 12.3649 16.6306C12.2447 16.513 12.082 16.4488 11.9139 16.4524H8.08431Z" fill="#A8B0B9"/>
</svg>
