<svg width="21" height="20" viewBox="0 0 21 20" fill="none" xmlns="http://www.w3.org/2000/svg">
<path d="M16.75 3.99995C16.75 4.14828 16.7042 4.29329 16.6183 4.41662C16.5325 4.53996 16.4105 4.63609 16.2677 4.69286C16.125 4.74962 15.9679 4.76447 15.8163 4.73554C15.6648 4.7066 15.5256 4.63517 15.4163 4.53028C15.3071 4.42539 15.2327 4.29175 15.2025 4.14626C15.1724 4.00078 15.1878 3.84998 15.247 3.71293C15.3061 3.57589 15.4062 3.45876 15.5347 3.37634C15.6632 3.29393 15.8142 3.24995 15.9688 3.24995C16.176 3.24995 16.3747 3.32896 16.5212 3.46962C16.6677 3.61027 16.75 3.80103 16.75 3.99995ZM19.1406 8.11745L15.9688 14.3049L12.7969 8.11745C11.0859 4.95245 11.0469 3.11495 12.6562 1.56995C13.5352 0.727244 14.7266 0.253906 15.9688 0.253906C17.2109 0.253906 18.4023 0.727244 19.2812 1.56995C20.8906 3.11495 20.8516 4.95245 19.1406 8.11745ZM18.2656 4.44245C18.3648 3.96883 18.3025 3.47715 18.0881 3.04013C17.8736 2.60311 17.5183 2.24396 17.0747 2.01581C16.6312 1.78765 16.1229 1.70261 15.6251 1.77325C15.1273 1.8439 14.6664 2.06648 14.3106 2.40807C13.9547 2.74967 13.7229 3.19214 13.6493 3.67004C13.5757 4.14794 13.6643 4.63588 13.9019 5.0617C14.1396 5.48752 14.5137 5.8286 14.9689 6.03449C15.4242 6.24038 15.9363 6.30014 16.4297 6.20495C16.8826 6.11756 17.2985 5.90364 17.6251 5.59006C17.9518 5.27647 18.1746 4.87722 18.2656 4.44245ZM15.1875 16.7499V18.2499H12.0625V19.7499H16.75V16.7499H15.1875ZM4.25 18.2499V19.7499H10.5V18.2499H4.25ZM1.90625 15.2499H0.34375V19.7499H2.6875V18.2499H1.90625V15.2499ZM1.90625 13.7499V7.74995H0.34375V13.7499H1.90625ZM1.90625 3.24995H4.25V1.74995H0.34375V6.24995H1.90625V3.24995ZM7.05469 4.62245L8.15625 3.55745L9.25781 4.62245L10.3672 3.55745L9.25781 2.49995L10.3672 1.44245L9.25781 0.377446L8.15625 1.44245L7.05469 0.377446L5.94531 1.44245L7.05469 2.49995L5.94531 3.55745L7.05469 4.62245Z" fill="#B03138"/>
</svg>
