<svg width="21" height="20" viewBox="0 0 21 20" fill="none" xmlns="http://www.w3.org/2000/svg">
<path d="M16.6086 9.17777V2.70248C16.6101 2.40142 16.4923 2.11202 16.2809 1.8976C16.0696 1.68318 15.7819 1.56119 15.4808 1.55833H14.5171V0.426492C14.5171 0.200943 14.3367 0 14.107 0H11.5809C11.4689 0.00338608 11.3623 0.0494069 11.2831 0.128667C11.2038 0.207928 11.1578 0.314451 11.1544 0.426492V1.55833H5.45418V0.426492C5.45172 0.314856 5.40655 0.208412 5.32798 0.129074C5.2494 0.0497356 5.1434 0.00354103 5.03179 0H2.50565C2.39468 0.00320229 2.28934 0.0495459 2.212 0.129184C2.13465 0.208822 2.09141 0.315479 2.09146 0.426492V1.55833H1.13185C0.830369 1.56102 0.542178 1.68281 0.330143 1.89715C0.118108 2.11149 -0.00056488 2.40098 1.00488e-05 2.70248V15.1774C-0.0012562 15.4791 0.117193 15.769 0.329376 15.9834C0.541559 16.1979 0.830152 16.3195 1.13185 16.3215H9.08346C9.88313 18.454 11.95 20 14.3736 20C17.4821 20 20.0082 17.4698 20.0082 14.3572C20.0099 13.2561 19.6888 12.1786 19.0845 11.258C18.4803 10.3375 17.6195 9.61425 16.6086 9.17777V9.17777ZM14.3736 8.71027C14.1932 8.71027 14.0168 8.73488 13.8405 8.73488H12.7948V6.31536H15.7884V8.73488H14.9067C14.7345 8.73488 14.554 8.71027 14.3736 8.71027ZM4.63401 11.9746V9.55505H7.91471V11.9746H4.63401ZM7.91471 12.7948V15.5013H4.63401V12.7948H7.91471ZM11.9746 6.31536V8.73488H8.73489V6.31536H11.9746ZM7.91471 8.73488H4.63401V6.31536H7.91471V8.73488ZM3.81383 8.73488H0.820186V6.31536H3.81383V8.73488ZM3.81383 9.55505V11.9746H0.820186V9.55505H3.81383ZM8.73489 9.55505H11.4087C10.4779 10.1409 9.73386 10.9803 9.2639 11.9746H8.73489V9.55505ZM11.9746 0.820176H13.697V3.36272H11.9746V0.820176ZM2.91164 0.820176H4.63401V3.36272H2.91164V0.820176ZM1.13185 2.37851H2.09146V3.76051C2.09153 3.8711 2.13494 3.97726 2.21237 4.05622C2.28979 4.13518 2.39508 4.18066 2.50565 4.1829H5.03179C5.14321 4.18097 5.24953 4.13585 5.32833 4.05705C5.40713 3.97825 5.45225 3.87193 5.45418 3.76051V2.37851H11.1544V3.76051C11.1579 3.87212 11.2041 3.97812 11.2835 4.05669C11.3628 4.13527 11.4693 4.18044 11.5809 4.1829H14.107C14.2172 4.18048 14.3219 4.13481 14.3987 4.05577C14.4754 3.97673 14.518 3.87067 14.5171 3.76051V2.37851H15.4808C15.5646 2.38074 15.644 2.41612 15.7016 2.47686C15.7593 2.5376 15.7905 2.61875 15.7884 2.70248V5.49518H0.820186V2.70248C0.819692 2.61852 0.851988 2.53768 0.910198 2.47717C0.968408 2.41667 1.04794 2.38127 1.13185 2.37851V2.37851ZM0.820186 15.1774V12.7948H3.81383V15.5013H1.13185C1.04771 15.4993 0.967782 15.4641 0.909427 15.4034C0.851073 15.3428 0.819005 15.2615 0.820186 15.1774V15.1774ZM8.73489 15.5013V12.7948H8.95633C8.8091 13.3039 8.73455 13.8313 8.73489 14.3613C8.73551 14.7442 8.77397 15.126 8.84971 15.5013H8.73489ZM14.3736 19.1757C11.7162 19.1757 9.55506 17.0105 9.55506 14.3531C9.55506 11.8639 11.4538 9.80111 13.8815 9.55505H14.8739C17.3016 9.80111 19.2003 11.8639 19.2003 14.3531C19.1962 17.0105 17.0351 19.1757 14.3736 19.1757Z" fill="#A8B0B9"/>
</svg>
