<svg width="21" height="20" viewBox="0 0 21 20" fill="none" xmlns="http://www.w3.org/2000/svg">
<path d="M16.75 4C16.75 4.14834 16.7042 4.29334 16.6183 4.41668C16.5325 4.54001 16.4105 4.63614 16.2677 4.69291C16.125 4.74968 15.9679 4.76453 15.8163 4.73559C15.6648 4.70665 15.5256 4.63522 15.4163 4.53033C15.3071 4.42544 15.2327 4.2918 15.2025 4.14632C15.1724 4.00083 15.1878 3.85003 15.247 3.71299C15.3061 3.57594 15.4062 3.45881 15.5347 3.3764C15.6632 3.29399 15.8142 3.25 15.9688 3.25C16.176 3.25 16.3747 3.32902 16.5212 3.46967C16.6677 3.61032 16.75 3.80109 16.75 4ZM19.1406 8.1175L15.9688 14.305L12.7969 8.1175C11.0859 4.9525 11.0469 3.115 12.6563 1.57C13.5352 0.727297 14.7266 0.25396 15.9688 0.25396C17.2109 0.25396 18.4023 0.727297 19.2812 1.57C20.8906 3.115 20.8516 4.9525 19.1406 8.1175V8.1175ZM18.2656 4.4425C18.3648 3.96888 18.3025 3.4772 18.0881 3.04018C17.8736 2.60316 17.5183 2.24402 17.0747 2.01586C16.6312 1.78771 16.1229 1.70266 15.6251 1.77331C15.1273 1.84395 14.6664 2.06653 14.3106 2.40813C13.9547 2.74972 13.7229 3.19219 13.6493 3.67009C13.5757 4.14799 13.6643 4.63593 13.9019 5.06175C14.1396 5.48757 14.5137 5.82865 14.9689 6.03454C15.4242 6.24043 15.9363 6.3002 16.4297 6.205C16.8826 6.11761 17.2985 5.90369 17.6251 5.59011C17.9518 5.27653 18.1746 4.87727 18.2656 4.4425V4.4425ZM15.1875 16.75V18.25H12.0625V19.75H16.75V16.75H15.1875ZM4.25 18.25V19.75H10.5V18.25H4.25ZM1.90625 15.25H0.34375V19.75H2.6875V18.25H1.90625V15.25ZM1.90625 13.75V7.75H0.34375V13.75H1.90625ZM1.90625 3.25H4.25V1.75H0.34375V6.25H1.90625V3.25ZM7.05469 4.6225L8.15625 3.5575L9.25781 4.6225L10.3672 3.5575L9.25781 2.5L10.3672 1.4425L9.25781 0.3775L8.15625 1.4425L7.05469 0.3775L5.94531 1.4425L7.05469 2.5L5.94531 3.5575L7.05469 4.6225Z" fill="#A8B0B9"/>
</svg>
