<svg width="22" height="18" viewBox="0 0 22 18" fill="none" xmlns="http://www.w3.org/2000/svg">
<path d="M17.3511 0C15.3582 0.00271474 13.5872 1.18504 12.9465 2.94222H7.99809C8.44649 2.65317 8.71689 2.17896 8.71842 1.67042C8.71842 0.811141 7.95743 0.112146 7.0224 0.112146C6.45044 0.112146 5.91671 0.377904 5.60062 0.82142C5.43811 1.03646 5.3798 1.08789 5.2733 1.44309C5.14255 1.10246 5.03897 0.889015 4.95656 0.795852C4.812 0.591392 4.60714 0.446794 4.37954 0.324625C4.11927 0.185173 3.824 0.112018 3.52418 0.112161C2.58872 0.112161 1.82815 0.81112 1.82815 1.67043C1.82815 2.17908 2.10024 2.65316 2.5488 2.94223H2.19907C0.984764 2.94495 0.00109999 3.85923 0 4.99013V15.9517C0 17.0823 0.984882 17.9987 2.19907 18H19.0513C20.2656 17.9971 21.2491 17.0823 21.2504 15.9517V6.6822C22.1778 5.35141 22.2504 3.65469 21.436 2.26109C20.6226 0.86701 19.055 -0.000424359 17.3512 0.00016088L17.3511 0ZM3.52428 0.722112C3.7095 0.722112 3.89119 0.767549 4.05231 0.853418C4.30889 0.990013 4.48904 1.22333 4.54644 1.49352L4.83172 2.86361L3.32827 2.60128C2.84318 2.52041 2.48808 2.12935 2.48348 1.67027C2.49223 1.14118 2.95596 0.716988 3.52423 0.722108L3.52428 0.722112ZM7.01823 0.722112C7.05076 0.722112 7.08361 0.723684 7.11675 0.726541C7.64357 0.771693 8.05068 1.17791 8.06313 1.67068C8.06022 2.12976 7.70389 2.52052 7.21882 2.60168L5.71509 2.86444L6.00022 1.49363C6.09613 1.07142 6.47518 0.765811 6.92205 0.726344C6.95397 0.723486 6.98589 0.721915 7.01811 0.721915L7.01823 0.722112ZM17.4658 2.47282H19.3378C19.5189 2.47282 19.6657 2.60941 19.6657 2.77801V4.52115C19.6657 4.68946 19.5187 4.82634 19.3378 4.82634C19.157 4.82634 19.0105 4.68946 19.0105 4.52115V3.51454L16.3727 5.97053C16.2447 6.08969 16.0369 6.08969 15.9089 5.97053C15.7811 5.85151 15.7811 5.65791 15.9089 5.53888L18.5473 3.08278H17.4657C17.2846 3.08278 17.1378 2.94632 17.1378 2.77801C17.1378 2.60941 17.2848 2.47282 17.4657 2.47282H17.4658ZM11.0454 3.54944C11.6095 3.54858 12.1834 3.54944 12.7748 3.55287H12.7757C12.5293 4.81607 12.8987 6.11556 13.7818 7.10147C14.6651 8.08734 15.9712 8.657 17.3502 8.65744C18.5629 8.65744 19.7278 8.2158 20.5943 7.42551V12.7267H5.61517V4.01393L7.68563 5.94097C7.81346 6.06014 8.02155 6.06014 8.14955 5.94097C8.27692 5.82195 8.27707 5.62907 8.14955 5.50976L6.06358 3.5686C7.75422 3.5686 9.35388 3.55159 11.0457 3.54917L11.0454 3.54944ZM2.19557 3.5503L4.48087 3.56816L2.93433 5.0081C2.80635 5.12712 2.80635 5.32044 2.93433 5.43975C3.06216 5.55891 3.26964 5.55891 3.39793 5.43975L4.94495 3.99952V5.92411H4.9626V12.7264H0.656144L0.656297 4.99029C0.656297 4.19857 1.34363 3.55748 2.19286 3.5532L2.19593 3.55005L2.19557 3.5503Z" fill="#B03138"/>
</svg>
